<svg preserveAspectRatio="none" width="100%" height="100%" overflow="visible" style="display: block;" viewBox="0 0 40 40" fill="none" xmlns="http://www.w3.org/2000/svg">
<g id="arrow-right-circle">
<g id="Vector">
<path d="M20 36.6667C29.2047 36.6667 36.6667 29.2047 36.6667 20C36.6667 10.7953 29.2047 3.33333 20 3.33333C10.7953 3.33333 3.33333 10.7953 3.33333 20C3.33333 29.2047 10.7953 36.6667 20 36.6667Z" fill="var(--fill-0, black)"/>
<path d="M13.3333 20H26.6667Z" fill="var(--fill-0, black)"/>
<path d="M20 26.6667L26.6667 20L20 13.3333" fill="var(--fill-0, black)"/>
<path d="M13.3333 20H26.6667M20 13.3333L26.6667 20L20 26.6667M36.6667 20C36.6667 29.2047 29.2047 36.6667 20 36.6667C10.7953 36.6667 3.33333 29.2047 3.33333 20C3.33333 10.7953 10.7953 3.33333 20 3.33333C29.2047 3.33333 36.6667 10.7953 36.6667 20Z" stroke="var(--stroke-0, white)" stroke-linecap="round" stroke-linejoin="round"/>
</g>
</g>
</svg>
