<svg preserveAspectRatio="none" width="100%" height="100%" overflow="visible" style="display: block;" viewBox="0 0 14 14" fill="none" xmlns="http://www.w3.org/2000/svg">
<g id="pencil-ruler" clip-path="url(#clip0_0_38)">
<path id="Vector" d="M8.75 2.91667L11.0833 5.25M7.58336 4.08336L5.07503 1.57503C4.81158 1.31285 4.45503 1.16567 4.08336 1.16567C3.71169 1.16567 3.35514 1.31285 3.09169 1.57503L1.57503 3.09169C1.31285 3.35514 1.16567 3.71169 1.16567 4.08336C1.16567 4.45503 1.31285 4.81158 1.57503 5.07503L4.08336 7.58336M4.66667 3.5L5.83333 2.33333M10.5 9.33333L11.6667 8.16667M9.91667 6.41667L12.425 8.925C12.9733 9.47333 12.9733 10.36 12.425 10.9083L10.9083 12.425C10.36 12.9733 9.47333 12.9733 8.925 12.425L6.41667 9.91667M1.16667 12.8333L4.375 11.9583L12.3492 3.9841C12.6586 3.67468 12.8324 3.25502 12.8324 2.81744C12.8324 2.37985 12.6586 1.96019 12.3492 1.65077C12.0397 1.34135 11.6201 1.16752 11.1825 1.16752C10.7449 1.16752 10.3253 1.34135 10.0158 1.65077L2.04167 9.62494L1.16667 12.8333Z" stroke="var(--stroke-0, #363944)" stroke-linecap="round" stroke-linejoin="round"/>
</g>
<defs>
<clipPath id="clip0_0_38">
<rect width="14" height="14" fill="white"/>
</clipPath>
</defs>
</svg>
