<svg preserveAspectRatio="none" width="100%" height="100%" overflow="visible" style="display: block;" viewBox="0 0 16.0003 16" fill="none" xmlns="http://www.w3.org/2000/svg">
<g id="Group 1">
<path id="Vector" d="M3.54985 0.025936C4.26768 -0.0459082 4.99245 0.0316079 5.67808 0.257226L5.71905 0.270461L5.75749 0.289997C6.15453 0.492295 6.48603 0.799848 6.71796 1.17797L6.81123 1.34371L6.83014 1.38215L6.84401 1.42249C7.07088 2.11447 7.14841 2.84614 7.07341 3.5697V12.4286C7.14904 13.1534 7.07152 13.8857 6.84401 14.5776L6.83014 14.6179L6.81123 14.6564C6.57994 15.1101 6.21125 15.4788 5.75749 15.7101L5.71905 15.729L5.67808 15.7429C4.99239 15.9685 4.26762 16.046 3.54986 15.9735C2.83266 16.0454 2.10789 15.9678 1.42276 15.7429L1.38179 15.729L1.34398 15.7101C0.890211 15.4788 0.520889 15.1101 0.290238 14.6564L0.270071 14.6179L0.257466 14.5776C0.0299455 13.885 -0.0475619 13.1533 0.0280579 12.4286V3.5697C-0.04757 2.84621 0.0299486 2.11453 0.257466 1.42249L0.270071 1.38215L0.290238 1.34371C0.520905 0.889954 0.890227 0.520642 1.34398 0.289997L1.38179 0.270461L1.42276 0.257226C2.10782 0.031615 2.83259 -0.0459066 3.54985 0.025936ZM5.28748 1.30086C4.74673 1.12944 4.17638 1.07271 3.61294 1.13637L3.55054 1.14394L3.48815 1.13637C2.92472 1.07272 2.35374 1.12944 1.81296 1.30086C1.59743 1.41934 1.4197 1.59705 1.30121 1.81259C1.12979 2.35333 1.07306 2.92429 1.13673 3.48774L1.14051 3.51925V12.4809L1.13673 12.5118C1.07307 13.0759 1.12979 13.6462 1.30121 14.1863C1.4197 14.4025 1.59741 14.5796 1.81296 14.6987C2.35371 14.8695 2.92406 14.9268 3.48815 14.8638L3.55054 14.8562L3.61294 14.8638C4.177 14.9268 4.74672 14.8695 5.28748 14.6987C5.50364 14.5796 5.68074 14.4025 5.79923 14.1863C5.97065 13.6462 6.02801 13.0759 5.96435 12.5118L5.96119 12.4809V3.51925L5.96435 3.48774C6.028 2.92432 5.97065 2.35336 5.79923 1.81259C5.68075 1.59707 5.50366 1.41934 5.28748 1.30086Z" fill="#4D35FF"/>
<path id="Vector_2" d="M4.29251 12.6353C4.59943 12.6353 4.84838 12.8842 4.84838 13.1917C4.84838 13.4986 4.59943 13.7476 4.29251 13.7476H2.80895C2.50203 13.7476 2.25246 13.4986 2.25246 13.1917C2.25246 12.8842 2.50203 12.6353 2.80895 12.6353H4.29251Z" fill="#4D35FF"/>
<path id="Vector_3" d="M10.3277 0.987032C10.8117 0.830107 11.3329 0.830107 11.8169 0.987032L11.8573 1.00027L11.8957 1.0198C12.5404 1.34499 13.1083 1.80254 13.5652 2.3609C14.0518 2.75856 14.4614 3.24068 14.774 3.78456L14.9057 4.0297L14.9253 4.06689L14.9385 4.10785C15.0954 4.59186 15.0954 5.11368 14.9385 5.59769L14.9253 5.63802L14.9057 5.67646C14.5768 6.32874 14.1129 6.90224 13.5457 7.36161L5.96146 14.9457V6.46233C5.92239 6.0048 5.9684 5.5441 6.09759 5.10358L6.11398 5.0456L6.14297 4.99266C6.36355 4.58932 6.65724 4.23072 7.00828 3.93453L8.56621 2.37664C9.02502 1.81071 9.59852 1.34813 10.249 1.01978L10.2862 1.00024L10.3277 0.987032ZM11.4337 2.03382C11.1974 1.96513 10.9466 1.96513 10.7102 2.03382C10.2067 2.29473 9.76362 2.65837 9.41006 3.10204L9.39052 3.12662L7.76132 4.75514L7.74115 4.77215C7.50355 4.96879 7.30315 5.207 7.14873 5.47359C7.06869 5.77169 7.04222 6.08237 7.07121 6.38992L7.07373 6.41576V12.2605L12.7774 6.55758L12.7995 6.53615L12.8234 6.51661C13.2665 6.16244 13.6295 5.71939 13.8904 5.21585C13.9597 4.97888 13.9597 4.72744 13.8904 4.49047C13.6288 3.98693 13.2658 3.54388 12.8228 3.19033L12.7743 3.15126L12.7352 3.1021C12.381 2.6578 11.9373 2.29473 11.4337 2.03382Z" fill="#4D35FF"/>
<path id="Vector_4" d="M12.4225 8.92711C13.1491 8.85022 13.884 8.92837 14.5778 9.15714L14.6181 9.17038L14.6566 9.18991C15.0536 9.39158 15.3858 9.69912 15.617 10.076L15.7103 10.2424L15.7299 10.2808L15.7431 10.3211C15.9687 11.0062 16.0462 11.7316 15.9744 12.4488C16.0462 13.1666 15.9687 13.892 15.7431 14.5777L15.7299 14.618L15.7103 14.6558C15.4797 15.1096 15.1103 15.4782 14.6566 15.7095L14.6181 15.729L14.5778 15.7429C13.8864 15.9698 13.1547 16.0473 12.4312 15.9723H3.55058V14.86H12.481L12.5125 14.8625C13.076 14.9262 13.6463 14.8694 14.1871 14.6987C14.4033 14.5795 14.5804 14.4018 14.6988 14.1857C14.8696 13.6449 14.9276 13.0746 14.864 12.5112L14.857 12.4494L14.864 12.3876C14.9276 11.8236 14.8709 11.2533 14.6995 10.7131C14.5804 10.4963 14.4026 10.3186 14.1858 10.2001C13.6457 10.0287 13.076 9.97263 12.5126 10.0357L12.4811 10.0394H10.596V8.92712L12.4225 8.92711Z" fill="#4D35FF"/>
</g>
</svg>
