<svg preserveAspectRatio="none" width="100%" height="100%" overflow="visible" style="display: block;" viewBox="0 0 12 12" fill="none" xmlns="http://www.w3.org/2000/svg">
<g id="grip">
<g id="Vector">
<path d="M6 3C6.27614 3 6.5 2.77614 6.5 2.5C6.5 2.22386 6.27614 2 6 2C5.72386 2 5.5 2.22386 5.5 2.5C5.5 2.77614 5.72386 3 6 3Z" stroke="var(--stroke-0, #363944)" stroke-linecap="round" stroke-linejoin="round"/>
<path d="M9.5 3C9.77614 3 10 2.77614 10 2.5C10 2.22386 9.77614 2 9.5 2C9.22386 2 9 2.22386 9 2.5C9 2.77614 9.22386 3 9.5 3Z" stroke="var(--stroke-0, #363944)" stroke-linecap="round" stroke-linejoin="round"/>
<path d="M2.5 3C2.77614 3 3 2.77614 3 2.5C3 2.22386 2.77614 2 2.5 2C2.22386 2 2 2.22386 2 2.5C2 2.77614 2.22386 3 2.5 3Z" stroke="var(--stroke-0, #363944)" stroke-linecap="round" stroke-linejoin="round"/>
<path d="M6 6.5C6.27614 6.5 6.5 6.27614 6.5 6C6.5 5.72386 6.27614 5.5 6 5.5C5.72386 5.5 5.5 5.72386 5.5 6C5.5 6.27614 5.72386 6.5 6 6.5Z" stroke="var(--stroke-0, #363944)" stroke-linecap="round" stroke-linejoin="round"/>
<path d="M9.5 6.5C9.77614 6.5 10 6.27614 10 6C10 5.72386 9.77614 5.5 9.5 5.5C9.22386 5.5 9 5.72386 9 6C9 6.27614 9.22386 6.5 9.5 6.5Z" stroke="var(--stroke-0, #363944)" stroke-linecap="round" stroke-linejoin="round"/>
<path d="M2.5 6.5C2.77614 6.5 3 6.27614 3 6C3 5.72386 2.77614 5.5 2.5 5.5C2.22386 5.5 2 5.72386 2 6C2 6.27614 2.22386 6.5 2.5 6.5Z" stroke="var(--stroke-0, #363944)" stroke-linecap="round" stroke-linejoin="round"/>
<path d="M6 10C6.27614 10 6.5 9.77614 6.5 9.5C6.5 9.22386 6.27614 9 6 9C5.72386 9 5.5 9.22386 5.5 9.5C5.5 9.77614 5.72386 10 6 10Z" stroke="var(--stroke-0, #363944)" stroke-linecap="round" stroke-linejoin="round"/>
<path d="M9.5 10C9.77614 10 10 9.77614 10 9.5C10 9.22386 9.77614 9 9.5 9C9.22386 9 9 9.22386 9 9.5C9 9.77614 9.22386 10 9.5 10Z" stroke="var(--stroke-0, #363944)" stroke-linecap="round" stroke-linejoin="round"/>
<path d="M2.5 10C2.77614 10 3 9.77614 3 9.5C3 9.22386 2.77614 9 2.5 9C2.22386 9 2 9.22386 2 9.5C2 9.77614 2.22386 10 2.5 10Z" stroke="var(--stroke-0, #363944)" stroke-linecap="round" stroke-linejoin="round"/>
</g>
</g>
</svg>
