<svg preserveAspectRatio="none" width="100%" height="100%" overflow="visible" style="display: block;" viewBox="0 0 16 16" fill="none" xmlns="http://www.w3.org/2000/svg">
<g id="hand" clip-path="url(#clip0_0_83)">
<path id="Vector" d="M12 7.33333V4C12 3.64638 11.8595 3.30724 11.6095 3.05719C11.3594 2.80714 11.0203 2.66667 10.6667 2.66667C10.313 2.66667 9.97391 2.80714 9.72386 3.05719C9.47381 3.30724 9.33333 3.64638 9.33333 4M9.33333 6.66667V2.66667C9.33333 2.31304 9.19286 1.97391 8.94281 1.72386C8.69276 1.47381 8.35362 1.33333 8 1.33333C7.64638 1.33333 7.30724 1.47381 7.05719 1.72386C6.80714 1.97391 6.66667 2.31304 6.66667 2.66667V4M6.66667 4V7M6.66667 4C6.66667 3.64638 6.52619 3.30724 6.27614 3.05719C6.02609 2.80714 5.68696 2.66667 5.33333 2.66667C4.97971 2.66667 4.64057 2.80714 4.39052 3.05719C4.14048 3.30724 4 3.64638 4 4V9.33333M12.0001 5.33333C12.0001 4.97971 12.1405 4.64057 12.3906 4.39052C12.6406 4.14048 12.9798 4 13.3334 4C13.687 4 14.0262 4.14048 14.2762 4.39052C14.5263 4.64057 14.6667 4.97971 14.6667 5.33333V9.33333C14.6667 10.7478 14.1048 12.1044 13.1046 13.1046C12.1044 14.1048 10.7479 14.6667 9.3334 14.6667H8.00007C6.1334 14.6667 5.00007 14.0933 4.00674 13.1067L1.60674 10.7067C1.37736 10.4526 1.25446 10.1201 1.26348 9.77796C1.27251 9.43581 1.41277 9.11023 1.65522 8.86864C1.89766 8.62705 2.22374 8.48794 2.56592 8.48013C2.9081 8.47232 3.24018 8.59639 3.4934 8.82667L4.66674 10" stroke="var(--stroke-0, black)" stroke-linecap="round" stroke-linejoin="round"/>
</g>
<defs>
<clipPath id="clip0_0_83">
<rect width="16" height="16" fill="white"/>
</clipPath>
</defs>
</svg>
