<svg preserveAspectRatio="none" width="100%" height="100%" overflow="visible" style="display: block;" viewBox="0 0 16 16" fill="none" xmlns="http://www.w3.org/2000/svg">
<g id="phone-call" clip-path="url(#clip0_0_196)">
<path id="Vector" d="M9.3667 1.33333C10.7255 1.47651 11.9948 2.0792 12.9646 3.04172C13.9344 4.00424 14.5466 5.26894 14.7 6.62667M9.3667 4C10.0224 4.12929 10.624 4.45268 11.0936 4.92821C11.5632 5.40373 11.879 6.00942 12 6.66667M14.6666 11.2801V13.2801C14.6674 13.4657 14.6293 13.6495 14.555 13.8196C14.4806 13.9897 14.3715 14.1425 14.2347 14.268C14.0979 14.3935 13.9363 14.4891 13.7605 14.5485C13.5846 14.608 13.3982 14.6301 13.2133 14.6134C11.1618 14.3905 9.19129 13.6895 7.45996 12.5667C5.84917 11.5432 4.48351 10.1775 3.45996 8.56673C2.33327 6.82753 1.63212 4.84739 1.41329 2.78673C1.39663 2.60238 1.41854 2.41657 1.47762 2.24115C1.53671 2.06572 1.63167 1.90452 1.75647 1.76781C1.88126 1.6311 2.03316 1.52187 2.20248 1.44708C2.37181 1.37229 2.55485 1.33357 2.73996 1.3334H4.73996C5.06349 1.33021 5.37715 1.44478 5.62246 1.65575C5.86778 1.86672 6.02801 2.1597 6.07329 2.48006C6.1577 3.12011 6.31426 3.74855 6.53996 4.3534C6.62965 4.59201 6.64906 4.85134 6.59589 5.10065C6.54272 5.34996 6.4192 5.57881 6.23996 5.76006L5.39329 6.60673C6.34233 8.27576 7.72426 9.65769 9.39329 10.6067L10.24 9.76007C10.4212 9.58082 10.6501 9.4573 10.8994 9.40413C11.1487 9.35096 11.408 9.37037 11.6466 9.46006C12.2515 9.68577 12.8799 9.84232 13.52 9.92673C13.8438 9.97242 14.1396 10.1355 14.351 10.3851C14.5624 10.6346 14.6747 10.9531 14.6666 11.2801Z" stroke="var(--stroke-0, #363944)" stroke-linecap="round" stroke-linejoin="round"/>
</g>
<defs>
<clipPath id="clip0_0_196">
<rect width="16" height="16" fill="white"/>
</clipPath>
</defs>
</svg>
