<svg preserveAspectRatio="none" width="100%" height="100%" overflow="visible" style="display: block;" viewBox="0 0 14.4037 14.3333" fill="none" xmlns="http://www.w3.org/2000/svg">
<path id="Vector" d="M11.237 6.5V3.16667C11.237 2.81304 11.0965 2.47391 10.8465 2.22386C10.5964 1.97381 10.2573 1.83333 9.90365 1.83333C9.55002 1.83333 9.21089 1.97381 8.96084 2.22386C8.71079 2.47391 8.57031 2.81304 8.57031 3.16667M8.57031 5.83333V1.83333C8.57031 1.47971 8.42984 1.14057 8.17979 0.890524C7.92974 0.640476 7.5906 0.5 7.23698 0.5C6.88336 0.5 6.54422 0.640476 6.29417 0.890524C6.04412 1.14057 5.90365 1.47971 5.90365 1.83333V3.16667M5.90365 3.16667V6.16667M5.90365 3.16667C5.90365 2.81304 5.76317 2.47391 5.51312 2.22386C5.26307 1.97381 4.92393 1.83333 4.57031 1.83333C4.21669 1.83333 3.87755 1.97381 3.6275 2.22386C3.37745 2.47391 3.23698 2.81304 3.23698 3.16667V8.5M11.237 4.5C11.237 4.14638 11.3775 3.80724 11.6276 3.55719C11.8776 3.30714 12.2168 3.16667 12.5704 3.16667C12.924 3.16667 13.2631 3.30714 13.5132 3.55719C13.7632 3.80724 13.9037 4.14638 13.9037 4.5V8.5C13.9037 9.91449 13.3418 11.271 12.3416 12.2712C11.3414 13.2714 9.98487 13.8333 8.57038 13.8333H7.23705C5.37038 13.8333 4.23705 13.26 3.24371 12.2733L0.843715 9.87333C0.614338 9.61929 0.49144 9.28678 0.500464 8.94463C0.509489 8.60248 0.649746 8.2769 0.892195 8.03531C1.13464 7.79371 1.46072 7.65461 1.8029 7.6468C2.14508 7.63898 2.47716 7.76306 2.73038 7.99333L3.90371 9.16667" stroke="black" stroke-linecap="round" stroke-linejoin="round"/>
</svg>
